HIERARCHY
ROOT Hips
{
    OFFSET 0.000000 0.000000 0.000000
    CHANNELS 6 Xposition Yposition Zposition Zrotation Xrotation Yrotation
    JOINT Spine
    {
        OFFSET 0.000001 7.292995 0.000000
        CHANNELS 3 Zrotation Xrotation Yrotation
        JOINT Spine1
        {
            OFFSET -0.000000 20.255388 0.000001
            CHANNELS 3 Zrotation Xrotation Yrotation
            JOINT Neck
            {
                OFFSET 0.000001 20.786594 0.000000
                CHANNELS 3 Zrotation Xrotation Yrotation
                JOINT Head
                {
                    OFFSET 0.000003 12.530788 1.776080
                    CHANNELS 3 Zrotation Xrotation Yrotation
                    End Site
                    {
                        OFFSET 0.000000 17.760757 0.000000
                    }
                }
            }
            JOINT LeftShoulder
            {
                OFFSET 3.550532 15.465697 -0.908801
                CHANNELS 3 Zrotation Xrotation Yrotation
                JOINT LeftArm
                {
                    OFFSET 12.513301 -0.000005 0.000001
                    CHANNELS 3 Zrotation Xrotation Yrotation
                    JOINT LeftForeArm
                    {
                        OFFSET 24.225992 0.000005 0.000000
                        CHANNELS 3 Zrotation Xrotation Yrotation
                        JOINT LeftHand
                        {
                            OFFSET 20.711395 -0.000004 0.000000
                            CHANNELS 3 Zrotation Xrotation Yrotation
                            JOINT LeftHandThumb1
                            {
                                OFFSET 2.121964 -2.411326 3.375861
                                CHANNELS 3 Zrotation Xrotation Yrotation
                                JOINT LeftHandThumb2
                                {
                                    OFFSET 2.803212 -0.000001 -0.000002
                                    CHANNELS 3 Zrotation Xrotation Yrotation
                                    JOINT LeftHandThumb3
                                    {
                                        OFFSET 2.395929 0.000000 0.000000
                                        CHANNELS 3 Zrotation Xrotation Yrotation
                                        End Site
                                        {
                                            OFFSET 2.127676 0.000000 0.000000
                                        }
                                    }
                                }
                            }
                            JOINT LeftHandIndex1
                            {
                                OFFSET 8.680776 0.000004 3.375861
                                CHANNELS 3 Zrotation Xrotation Yrotation
                                JOINT LeftHandIndex2
                                {
                                    OFFSET 4.218180 -0.000002 0.000001
                                    CHANNELS 3 Zrotation Xrotation Yrotation
                                    JOINT LeftHandIndex3
                                    {
                                        OFFSET 2.109090 0.000001 -0.000000
                                        CHANNELS 3 Zrotation Xrotation Yrotation
                                        End Site
                                        {
                                            OFFSET 1.872952 0.000000 0.000000
                                        }
                                    }
                                }
                            }
                            JOINT LeftHandMiddle1
                            {
                                OFFSET 8.680775 0.000001 1.118862
                                CHANNELS 3 Zrotation Xrotation Yrotation
                                JOINT LeftHandMiddle2
                                {
                                    OFFSET 4.640000 0.000002 -0.000000
                                    CHANNELS 3 Zrotation Xrotation Yrotation
                                    JOINT LeftHandMiddle3
                                    {
                                        OFFSET 2.530906 0.000005 0.000000
                                        CHANNELS 3 Zrotation Xrotation Yrotation
                                        End Site
                                        {
                                            OFFSET 2.247544 0.000000 0.000000
                                        }
                                    }
                                }
                            }
                            JOINT LeftHandRing1
                            {
                                OFFSET 8.198514 -0.000004 -1.118859
                                CHANNELS 3 Zrotation Xrotation Yrotation
                                JOINT LeftHandRing2
                                {
                                    OFFSET 4.218182 -0.000003 -0.000001
                                    CHANNELS 3 Zrotation Xrotation Yrotation
                                    JOINT LeftHandRing3
                                    {
                                        OFFSET 2.109086 0.000004 0.000001
                                        CHANNELS 3 Zrotation Xrotation Yrotation
                                        End Site
                                        {
                                            OFFSET 1.872952 0.000000 0.000000
                                        }
                                    }
                                }
                            }
                            JOINT LeftHandPinky1
                            {
                                OFFSET 7.716242 0.000005 -3.375859
                                CHANNELS 3 Zrotation Xrotation Yrotation
                                JOINT LeftHandPinky2
                                {
                                    OFFSET 3.374535 0.000004 0.000002
                                    CHANNELS 3 Zrotation Xrotation Yrotation
                                    JOINT LeftHandPinky3
                                    {
                                        OFFSET 1.687275 0.000002 -0.000001
                                        CHANNELS 3 Zrotation Xrotation Yrotation
                                        End Site
                                        {
                                            OFFSET 1.498360 0.000000 0.000000
                                        }
                                    }
                                }
                            }
                        }
                    }
                }
            }
            JOINT RightShoulder
            {
                OFFSET -3.550531 15.465694 -0.908802
                CHANNELS 3 Zrotation Xrotation Yrotation
                JOINT RightArm
                {
                    OFFSET -12.513298 -0.000004 0.000001
                    CHANNELS 3 Zrotation Xrotation Yrotation
                    JOINT RightForeArm
                    {
                        OFFSET -24.225996 -0.000002 -0.000000
                        CHANNELS 3 Zrotation Xrotation Yrotation
                        JOINT RightHand
                        {
                            OFFSET -20.711401 0.000005 0.000001
                            CHANNELS 3 Zrotation Xrotation Yrotation
                            JOINT RightHandThumb1
                            {
                                OFFSET -2.121970 -2.411334 3.375861
                                CHANNELS 3 Zrotation Xrotation Yrotation
                                JOINT RightHandThumb2
                                {
                                    OFFSET -2.803210 0.000003 -0.000004
                                    CHANNELS 3 Zrotation Xrotation Yrotation
                                    JOINT RightHandThumb3
                                    {
                                        OFFSET -2.395930 -0.000001 0.000002
                                        CHANNELS 3 Zrotation Xrotation Yrotation
                                        End Site
                                        {
                                            OFFSET -2.127676 0.000000 0.000000
                                        }
                                    }
                                }
                            }
                            JOINT RightHandIndex1
                            {
                                OFFSET -8.680779 0.000001 3.375860
                                CHANNELS 3 Zrotation Xrotation Yrotation
                                JOINT RightHandIndex2
                                {
                                    OFFSET -4.218180 0.000000 -0.000000
                                    CHANNELS 3 Zrotation Xrotation Yrotation
                                    JOINT RightHandIndex3
                                    {
                                        OFFSET -2.109090 0.000001 -0.000000
                                        CHANNELS 3 Zrotation Xrotation Yrotation
                                        End Site
                                        {
                                            OFFSET -1.872952 0.000000 0.000000
                                        }
                                    }
                                }
                            }
                            JOINT RightHandMiddle1
                            {
                                OFFSET -8.680780 0.000001 1.118860
                                CHANNELS 3 Zrotation Xrotation Yrotation
                                JOINT RightHandMiddle2
                                {
                                    OFFSET -4.640000 -0.000002 0.000001
                                    CHANNELS 3 Zrotation Xrotation Yrotation
                                    JOINT RightHandMiddle3
                                    {
                                        OFFSET -2.530910 0.000001 -0.000000
                                        CHANNELS 3 Zrotation Xrotation Yrotation
                                        End Site
                                        {
                                            OFFSET -2.247544 0.000000 0.000000
                                        }
                                    }
                                }
                            }
                            JOINT RightHandRing1
                            {
                                OFFSET -8.198519 0.000005 -1.118860
                                CHANNELS 3 Zrotation Xrotation Yrotation
                                JOINT RightHandRing2
                                {
                                    OFFSET -4.218180 -0.000006 0.000000
                                    CHANNELS 3 Zrotation Xrotation Yrotation
                                    JOINT RightHandRing3
                                    {
                                        OFFSET -2.109090 0.000001 -0.000000
                                        CHANNELS 3 Zrotation Xrotation Yrotation
                                        End Site
                                        {
                                            OFFSET -1.872952 0.000000 0.000000
                                        }
                                    }
                                }
                            }
                            JOINT RightHandPinky1
                            {
                                OFFSET -7.716248 -0.000002 -3.375859
                                CHANNELS 3 Zrotation Xrotation Yrotation
                                JOINT RightHandPinky2
                                {
                                    OFFSET -3.374540 0.000000 0.000000
                                    CHANNELS 3 Zrotation Xrotation Yrotation
                                    JOINT RightHandPinky3
                                    {
                                        OFFSET -1.687270 0.000004 0.000001
                                        CHANNELS 3 Zrotation Xrotation Yrotation
                                        End Site
                                        {
                                            OFFSET -1.498360 0.000000 0.000000
                                        }
                                    }
                                }
                            }
                        }
                    }
                }
            }
        }
    }
    JOINT LeftUpLeg
    {
        OFFSET 8.880376 -0.000000 -0.000000
        CHANNELS 3 Zrotation Xrotation Yrotation
        JOINT LeftLeg
        {
            OFFSET -0.000001 -40.387405 -0.000001
            CHANNELS 3 Zrotation Xrotation Yrotation
            JOINT LeftFoot
            {
                OFFSET -0.000001 -36.911297 -0.000001
                CHANNELS 3 Zrotation Xrotation Yrotation
                JOINT LeftToeBase
                {
                    OFFSET -0.000002 -5.772240 13.320604
                    CHANNELS 3 Zrotation Xrotation Yrotation
                    End Site
                    {
                        OFFSET 0.000000 0.000000 3.552151
                    }
                }
            }
        }
    }
    JOINT RightUpLeg
    {
        OFFSET -8.880376 0.000000 0.000000
        CHANNELS 3 Zrotation Xrotation Yrotation
        JOINT RightLeg
        {
            OFFSET -0.000001 -40.387390 0.000000
            CHANNELS 3 Zrotation Xrotation Yrotation
            JOINT RightFoot
            {
                OFFSET 0.000002 -36.911297 -0.000001
                CHANNELS 3 Zrotation Xrotation Yrotation
                JOINT RightToeBase
                {
                    OFFSET 0.000001 -5.772238 13.320600
                    CHANNELS 3 Zrotation Xrotation Yrotation
                    End Site
                    {
                        OFFSET 0.000000 0.000000 3.552151
                    }
                }
            }
        }
    }
}
MOTION
Frames: 4
Frame Time: 0.013889
74.194809    83.843132    2.738661    -4.792789    9.051423    7.990377    0.356446    -15.522604    1.331697    0.169551    11.996432    1.219882    1.995189    -16.036198    -9.790382    11.759995    5.134151    -11.934220    13.908635    -5.932323    0.929755    -3.983146    -1.367576    -39.374523    -49.128193    31.899549    -114.574005    -11.163855    -22.820030    -0.354160    37.667995    28.479486    -48.172298    -16.999287    -2.190582    23.220070    -0.000000    0.000000    -0.000000    4.644577    17.944649    4.295752    4.418178    -0.000010    0.000002    4.418177    0.000000    0.000000    0.656068    8.999430    2.762160    0.647991    0.000000    0.000002    0.647988    -0.000010    -0.000002    -1.252517    -8.997887    2.980353    -1.237101    0.000003    -0.000001    -1.237102    0.000003    -0.000002    -3.282522    -17.972313    5.338694    -3.122193    -0.000003    0.000000    -3.122195    0.000003    -0.000000    -4.018742    5.180379    7.125823    22.660448    47.383579    17.812113    71.720207    11.803078    93.865486    -24.223145    -32.261654    -16.104841    -46.850643    21.912136    46.330685    10.741324    0.502777    -23.312359    -0.000000    0.000000    -0.000000    11.212629    17.677956    -7.397714    10.676784    -0.000002    0.000001    10.676781    0.000002    -0.000001    13.861460    8.742014    -4.124238    13.697269    0.000000    0.000001    13.697269    0.000000    0.000001    15.388144    -8.682364    -0.188684    15.207512    -0.000000    0.000000    15.207514    -0.000001    -0.000001    17.526579    -17.214823    0.204114    16.717760    -0.000001    -0.000002    16.717758    -0.000001    0.000002    6.928936    -13.790217    -2.322188    -0.000000    22.987555    0.000001    6.822879    -5.694578    2.150359    0.000000    4.472111    0.000001    -8.243950    -24.540213    -3.791543    -0.000001    48.922558    0.000001    3.345445    -0.308486    -6.219574    -0.000002    -0.928415    -0.000001    
74.684868    83.555672    2.504103    -5.112345    9.226672    7.637128    0.372577    -15.324035    1.409525    -0.161394    11.924968    1.363417    1.573911    -16.175056    -10.006225    11.805395    5.099267    -12.054527    12.985015    -6.085206    0.634918    -4.938413    -1.285485    -39.137016    -50.133404    31.857000    -113.787292    -14.104974    -22.661348    -1.577219    37.714821    28.381292    -48.374405    -17.036478    -2.206523    23.218647    -0.000000    0.000000    -0.000000    4.475772    17.948593    4.347768    4.257536    -0.000004    -0.000004    4.257540    0.000000    0.000001    0.511340    8.999653    2.784799    0.505045    0.000003    0.000001    0.505042    -0.000007    -0.000000    -1.388286    -8.997406    3.060214    -1.371204    -0.000014    -0.000004    -1.371203    -0.000003    0.000000    -3.414184    -17.970079    5.500257    -3.247447    0.000003    -0.000000    -3.247451    -0.000000    0.000000    -4.487463    4.963657    6.981999    21.892025    46.880119    17.868580    72.551048    13.593259    94.224991    -24.974356    -31.820345    -17.121029    -47.595459    21.380966    46.270664    10.392114    0.653241    -23.308828    -0.000000    0.000000    -0.000000    8.806205    17.801233    -7.664814    8.381479    -0.000002    0.000000    8.381479    0.000003    0.000000    11.759859    8.814091    -4.303692    11.619041    0.000000    -0.000000    11.619041    -0.000000    -0.000000    13.396919    -8.758948    -0.532313    13.237823    -0.000000    0.000000    13.237824    0.000000    -0.000001    15.584834    -17.378696    -0.456645    14.856614    0.000000    -0.000000    14.856606    -0.000001    0.000000    6.990378    -15.060663    -1.814161    -0.000000    25.187569    -0.000000    6.858577    -7.002720    2.125251    0.000001    4.426189    0.000001    -6.602168    -26.713766    -4.067814    0.000001    51.740986    -0.000001    4.599385    -1.199533    -4.378933    0.000000    -1.756950    0.000000    
75.022690    83.344193    2.332508    -5.345940    9.373380    7.346179    0.392814    -15.213328    1.496613    -0.469348    11.907808    1.509918    1.366581    -16.244793    -10.157158    11.885185    5.037992    -12.159071    12.444347    -6.151433    0.434156    -5.714298    -1.153418    -39.055962    -51.307793    32.026318    -113.012840    -16.081957    -22.594038    -2.292025    37.814690    28.261995    -48.490421    -17.048178    -2.211540    23.218187    -0.000000    0.000000    -0.000000    4.412200    17.950035    4.367358    4.197044    -0.000003    0.000002    4.197045    0.000003    -0.000000    0.367346    8.999817    2.807325    0.362825    0.000000    0.000000    0.362825    0.000000    0.000000    -1.573651    -8.996681    3.077679    -1.554287    0.000003    -0.000001    -1.554284    -0.000000    0.000000    -3.649569    -17.965807    5.520554    -3.471397    0.000000    -0.000002    -3.471397    0.000000    -0.000001    -4.868817    4.855341    6.930234    21.498098    46.472500    17.852880    73.101570    14.873618    94.458900    -25.368792    -31.620384    -17.456038    -48.076920    21.002729    46.292301    10.153807    0.755903    -23.305906    -0.000000    0.000000    -0.000000    6.992530    17.874619    -7.628366    6.653437    -0.000002    -0.000002    6.653437    0.000000    0.000001    10.180895    8.860561    -4.320684    10.058123    0.000002    -0.000000    10.058132    -0.000002    0.000000    11.902906    -8.809560    -0.853757    11.760472    -0.000001    0.000000    11.760470    -0.000001    -0.000001    14.128533    -17.489130    -1.079535    13.462812    -0.000000    0.000002    13.462818    -0.000001    -0.000002    7.119742    -15.992489    -1.255755    0.000000    26.752537    -0.000000    6.674533    -7.892915    1.848777    0.000000    4.377973    0.000001    -5.358454    -28.267923    -4.206749    0.000002    53.616302    -0.000001    5.472753    -1.740720    -2.943322    -0.000001    -2.435381    -0.000000    
75.322632    83.148994    2.166148    -5.562281    9.504204    7.062382    0.408118    -15.117043    1.564557    -0.826369    11.907005    1.648458    1.202810    -16.258263    -10.304584    11.956199    4.996627    -12.269939    11.858820    -6.181133    0.179499    -6.428133    -1.022594    -38.905258    -52.456627    32.098358    -112.213997    -17.866432    -22.252121    -2.827022    37.908009    28.162613    -48.555973    -17.083405    -2.226644    23.216833    -0.000000    0.000000    -0.000000    4.422840    17.949797    4.364076    4.207171    0.000000    0.000002    4.207170    -0.000007    0.000001    0.191567    8.999964    2.834822    0.189208    0.000000    0.000001    0.189208    -0.000003    0.000000    -1.842438    -8.995416    3.093267    -1.819772    0.000003    -0.000000    -1.819775    -0.000007    -0.000001    -4.025155    -17.958410    5.519966    -3.828753    0.000003    -0.000002    -3.828755    0.000003    0.000001    -5.247613    4.766922    6.904672    21.120642    46.073082    17.952454    73.551796    16.070982    94.672287    -25.708820    -31.483458    -17.532982    -48.447151    20.710133    46.310963    9.965285    0.837104    -23.303280    -0.000000    0.000000    -0.000000    5.204045    17.930511    -7.335714    4.950641    0.000002    0.000001    4.950644    0.000000    -0.000000    8.653131    8.899210    -4.213422    8.548185    -0.000001    -0.000000    8.548182    0.000002    0.000000    10.473091    -8.852465    -1.149936    10.346945    0.000000    0.000001    10.346949    -0.000000    0.000001    12.750806    -17.583729    -1.648002    12.145719    -0.000000    0.000000    12.145720    -0.000001    -0.000002    7.299767    -16.920124    -0.563955    -0.000000    28.332020    -0.000000    6.435779    -8.690741    1.469896    -0.000000    4.304666    0.000000    -4.103117    -29.708881    -4.304533    0.000002    55.264481    -0.000002    6.134659    -2.041926    -1.643936    0.000000    -3.103982    0.000000    
